<svg width="300" height="300" viewBox="0 0 300 300" fill="none" xmlns="http://www.w3.org/2000/svg">
<rect x="60" y="34" width="215" height="65" rx="32.5" fill="url(#paint0_linear_12_2)"/>
<path d="M25 144.5C25 126.551 39.5507 112 57.5 112H192.5C210.449 112 225 126.551 225 144.5C225 162.449 210.449 177 192.5 177H57.5C39.5508 177 25 162.449 25 144.5Z" fill="url(#paint1_linear_12_2)"/>
<path d="M75.1315 264.177C62.3563 251.569 62.2211 230.992 74.8294 218.216L169.659 122.132C182.268 109.356 202.845 109.221 215.62 121.829C228.395 134.438 228.531 155.015 215.922 167.79L121.092 263.875C108.484 276.65 87.9067 276.786 75.1315 264.177Z" fill="url(#paint2_linear_12_2)"/>
<defs>
<linearGradient id="paint0_linear_12_2" x1="168" y1="34" x2="168" y2="99" gradientUnits="userSpaceOnUse">
<stop stop-color="#505B69"/>
<stop offset="1" stop-color="#6F7A88" stop-opacity="0.9"/>
</linearGradient>
<linearGradient id="paint1_linear_12_2" x1="125.145" y1="112" x2="125.145" y2="273.546" gradientUnits="userSpaceOnUse">
<stop stop-color="#9DA6B2"/>
<stop offset="1" stop-color="#D5DCE6"/>
</linearGradient>
<linearGradient id="paint2_linear_12_2" x1="125.145" y1="112" x2="125.145" y2="273.546" gradientUnits="userSpaceOnUse">
<stop stop-color="#9DA6B2"/>
<stop offset="1" stop-color="#D5DCE6"/>
</linearGradient>
</defs>
</svg>
